<svg width="64" height="64" viewBox="0 0 64 64" fill="none" xmlns="http://www.w3.org/2000/svg">
  <defs>
    <radialGradient id="dreamlensOrb" cx="0" cy="0" r="1" gradientUnits="userSpaceOnUse" gradientTransform="translate(32 28) rotate(90) scale(26)">
      <stop offset="0" stop-color="#F4F0FF" stop-opacity="0.24"/>
      <stop offset="0.52" stop-color="#B9ABF2" stop-opacity="0.14"/>
      <stop offset="1" stop-color="#2B2148" stop-opacity="0.06"/>
    </radialGradient>
    <linearGradient id="dreamlensRing" x1="18" y1="15" x2="48" y2="49" gradientUnits="userSpaceOnUse">
      <stop offset="0" stop-color="#F1EBFF" stop-opacity="0.34"/>
      <stop offset="0.55" stop-color="#C4B6F6" stop-opacity="0.18"/>
      <stop offset="1" stop-color="#7561B8" stop-opacity="0.12"/>
    </linearGradient>
    <linearGradient id="dreamlensMoon" x1="16" y1="18" x2="33" y2="45" gradientUnits="userSpaceOnUse">
      <stop offset="0" stop-color="#FBF8FF" stop-opacity="0.98"/>
      <stop offset="0.52" stop-color="#E4DCF8" stop-opacity="0.92"/>
      <stop offset="1" stop-color="#BBB0E9" stop-opacity="0.86"/>
    </linearGradient>
    <radialGradient id="dreamlensGlow" cx="0" cy="0" r="1" gradientUnits="userSpaceOnUse" gradientTransform="translate(42 23) rotate(113) scale(16 12)">
      <stop offset="0" stop-color="#F6F2FF" stop-opacity="0.65"/>
      <stop offset="0.32" stop-color="#DFD6FB" stop-opacity="0.24"/>
      <stop offset="1" stop-color="#DFD6FB" stop-opacity="0"/>
    </radialGradient>
    <filter id="dreamlensSoftGlow" x="2" y="2" width="60" height="60" filterUnits="userSpaceOnUse" color-interpolation-filters="sRGB">
      <feGaussianBlur stdDeviation="3.5"/>
    </filter>
  </defs>

  <circle cx="32" cy="32" r="21.5" fill="url(#dreamlensOrb)" stroke="url(#dreamlensRing)" stroke-width="1.1"/>
  <ellipse cx="41.5" cy="22.5" rx="7.5" ry="6" fill="url(#dreamlensGlow)" filter="url(#dreamlensSoftGlow)"/>
  <path fill-rule="evenodd" clip-rule="evenodd" d="M29.754 17.867C22.136 18.98 16.28 25.537 16.28 33.463C16.28 42.173 23.34 49.233 32.05 49.233C35.952 49.233 39.523 47.817 42.278 45.469C40.424 46.021 38.409 46.202 36.331 45.958C28.092 44.992 21.689 37.997 21.689 29.496C21.689 24.401 23.986 19.843 27.596 16.829C28.335 16.211 29.754 16.872 29.754 17.867Z" fill="url(#dreamlensMoon)"/>
</svg>
